<?xml version="1.0" encoding="UTF-8" standalone="no"?>
<!-- Created with Inkscape (http://www.inkscape.org/) -->

<svg
   width="56.473541mm"
   height="104.9073mm"
   viewBox="0 0 56.473541 104.9073"
   version="1.1"
   id="svg1"
   inkscape:version="1.4.2 (f4327f4, 2025-05-13)"
   sodipodi:docname="icon.svg"
   xmlns:inkscape="http://www.inkscape.org/namespaces/inkscape"
   xmlns:sodipodi="http://sodipodi.sourceforge.net/DTD/sodipodi-0.dtd"
   xmlns="http://www.w3.org/2000/svg"
   xmlns:svg="http://www.w3.org/2000/svg">
  <sodipodi:namedview
     id="namedview1"
     pagecolor="#ffffff"
     bordercolor="#000000"
     borderopacity="0.25"
     inkscape:showpageshadow="2"
     inkscape:pageopacity="0.0"
     inkscape:pagecheckerboard="0"
     inkscape:deskcolor="#d1d1d1"
     inkscape:document-units="mm"
     inkscape:zoom="4.1157408"
     inkscape:cx="119.78403"
     inkscape:cy="312.82339"
     inkscape:window-width="2560"
     inkscape:window-height="1373"
     inkscape:window-x="-9"
     inkscape:window-y="-9"
     inkscape:window-maximized="1"
     inkscape:current-layer="layer1" />
  <defs
     id="defs1" />
  <g
     inkscape:label="Layer 1"
     inkscape:groupmode="layer"
     id="layer1"
     transform="translate(-0.93481996,-0.43720171)">
    <path
       style="clip-rule:evenodd;fill-rule:evenodd;stroke-width:0.264583;image-rendering:optimizeQuality;shape-rendering:geometricPrecision;text-rendering:geometricPrecision"
       fill="#ef642b"
       d="m 19.417941,65.392406 c -1.46659,2.32437 -2.39263,4.88209 -2.77813,7.67292 -0.17648,1.94019 -0.17648,3.88064 0,5.82083 0.0421,0.48763 0.17436,0.66384 0.39688,0.52917 0.35745,1.37716 0.97472,2.65589 1.85208,3.83646 -3.42424,0.7792 -6.599238,0.16192 -9.5249996,-1.85209 -6.214534,-4.97972 -8.99265897,-11.46201 -8.334375,-19.44687 1.377685,1.81901 3.00937,3.36232 4.894791,4.63021 3.161506,0.7194 4.4405016,-0.55933 3.836459,-3.83646 -1.110457,-3.06705 -2.16879,-6.15394 -3.175,-9.26042 -3.180292,-12.502088 0.259291,-22.732732 10.3187446,-30.691663 -1.23534,4.324085 -1.49992,8.733896 -0.79375,13.229167 1.10967,4.364302 3.88779,6.437047 8.33438,6.217708 2.40533,-1.237721 3.46366,-3.222096 3.175,-5.953125 -0.31089,-2.921 -0.70776,-5.831417 -1.19063,-8.73125 -0.79798,-10.088298 2.7739,-18.2464603 10.71563,-24.4739583 1.7055,-1.250156 3.55759,-2.13201299 5.55625,-2.64583299 -3.86847,4.58152499 -5.23558,9.82927029 -4.10104,15.74270829 0.41248,2.091266 1.03002,4.119827 1.85208,6.085416 2.60985,5.249863 5.43216,10.365052 8.46667,15.345833 2.5953,6.235171 3.21257,12.673547 1.85208,19.314587 -0.9996,3.49805 -2.49899,6.76142 -4.49792,9.78958 -0.18388,1.72323 0.60987,2.51698 2.38125,2.38125 2.68896,-0.19976 4.62942,-1.52268 5.82084,-3.96875 1.00356,-1.83092 1.70921,-3.77137 2.11666,-5.82083 2.11164,8.26875 0.12727,15.36832 -5.95312,21.29895 -3.08769,2.56038 -6.61538,3.6629 -10.58333,3.3073 0.75088,-1.59676 0.97128,-3.27237 0.66145,-5.02709 -0.94271,-2.08915 -2.00104,-4.11744 -3.175,-6.08541 -1.11416,-2.61171 -1.20253,-5.25754 -0.26458,-7.9375 3.52319,-7.61709 2.90565,-14.84895 -1.85208,-21.695837 -0.3302,3.263371 -1.38854,6.262157 -3.175,8.995837 -3.09563,3.53668 -6.4471,6.80005 -10.05417,9.78958 -0.93107,1.16496 -1.85711,2.31166 -2.77812,3.43958 z"
       id="path2" />
    <path
       style="clip-rule:evenodd;fill-rule:evenodd;stroke-width:0.264583;image-rendering:optimizeQuality;shape-rendering:geometricPrecision;text-rendering:geometricPrecision;fill:#3c3c3c;fill-opacity:1"
       fill="#292c2e"
       d="m 28.149191,71.742406 c 0.62362,-0.0431 1.24089,8e-4 1.85208,0.13229 2.48973,1.26657 4.9149,2.6334 7.27604,4.10105 0.24262,3.27845 0.15452,6.54155 -0.26458,9.78958 -2.52069,1.50283 -5.1226,2.82575 -7.80521,3.96875 -2.48788,-1.11152 -4.9575,-2.30214 -7.40833,-3.57188 -0.39688,-0.22039 -0.70565,-0.52916 -0.92605,-0.92604 -0.17647,-2.99852 -0.17647,-5.99731 0,-8.99583 2.40083,-1.56792 4.82627,-3.06731 7.27605,-4.49792 z"
       id="path28" />
    <path
       style="clip-rule:evenodd;fill-rule:evenodd;stroke-width:0.264583;image-rendering:optimizeQuality;shape-rendering:geometricPrecision;text-rendering:geometricPrecision;fill:#3c3c3c;fill-opacity:1"
       fill="#282c2e"
       d="m 18.888771,87.088246 c 3.29777,0.96546 6.34047,2.46459 9.12812,4.49791 0.25348,3.2004 0.16537,6.3754 -0.26458,9.525004 -2.51566,1.59412 -5.11731,3.0054 -7.80521,4.23334 -2.13518,-0.93504 -4.25185,-1.94919 -6.35,-3.04271 -0.74215,-0.39132 -1.403612,-0.8763 -1.984372,-1.45521 -0.214842,-3.099074 -0.170656,-6.185964 0.132292,-9.260424 2.4429,-1.4396 4.82415,-2.93899 7.14375,-4.49791 z"
       id="path34" />
    <path
       style="clip-rule:evenodd;fill-rule:evenodd;stroke-width:0.264583;image-rendering:optimizeQuality;shape-rendering:geometricPrecision;text-rendering:geometricPrecision;fill:#3c3c3c;fill-opacity:1"
       fill="#292d2f"
       d="m 35.557521,104.02158 c -1.52744,-0.98584 -3.11494,-1.91188 -4.7625,-2.77813 -0.16563,-0.19843 -0.29792,-0.4191 -0.39688,-0.66145 -0.20902,-3.010704 -0.16483,-6.009494 0.1323,-8.995844 2.33336,-1.83012 4.89108,-3.32951 7.67291,-4.49791 2.67759,1.29487 5.32342,2.6617 7.9375,4.10104 0.16563,0.19844 0.29792,0.4191 0.39688,0.66146 0.2532,3.11255 0.16483,6.19918 -0.26459,9.260414 -2.44686,1.3335 -4.87203,2.7006 -7.27604,4.10104 -1.36287,0.19924 -2.50957,-0.19764 -3.43958,-1.19062 z"
       id="path35" />
  </g>
</svg>
