<?xml version="1.0" encoding="UTF-8" standalone="no"?>
<!-- Created with Inkscape (http://www.inkscape.org/) -->

<svg
   width="210mm"
   height="297mm"
   viewBox="0 0 210 297"
   version="1.1"
   id="svg1"
   inkscape:version="1.4.2 (f4327f4, 2025-05-13)"
   sodipodi:docname="logo.svg"
   xmlns:inkscape="http://www.inkscape.org/namespaces/inkscape"
   xmlns:sodipodi="http://sodipodi.sourceforge.net/DTD/sodipodi-0.dtd"
   xmlns="http://www.w3.org/2000/svg"
   xmlns:svg="http://www.w3.org/2000/svg">
  <sodipodi:namedview
     id="namedview1"
     pagecolor="#ffffff"
     bordercolor="#000000"
     borderopacity="0.25"
     inkscape:showpageshadow="2"
     inkscape:pageopacity="0.0"
     inkscape:pagecheckerboard="0"
     inkscape:deskcolor="#d1d1d1"
     inkscape:document-units="mm"
     inkscape:zoom="1.0289352"
     inkscape:cx="396.52643"
     inkscape:cy="561.25984"
     inkscape:window-width="2560"
     inkscape:window-height="1373"
     inkscape:window-x="-9"
     inkscape:window-y="-9"
     inkscape:window-maximized="1"
     inkscape:current-layer="layer1" />
  <defs
     id="defs1" />
  <g
     inkscape:label="Layer 1"
     inkscape:groupmode="layer"
     id="layer1">
    <path
       style="clip-rule:evenodd;fill-rule:evenodd;stroke-width:0.264583;image-rendering:optimizeQuality;shape-rendering:geometricPrecision;text-rendering:geometricPrecision"
       fill="#ef642b"
       d="m 19.737283,146.78497 c -1.466586,2.32436 -2.392627,4.88209 -2.778125,7.67292 -0.176477,1.94019 -0.176477,3.88064 0,5.82083 0.04207,0.48763 0.17436,0.66384 0.396875,0.52917 0.357452,1.37715 0.974725,2.65588 1.852083,3.83645 -3.424237,0.7792 -6.599237,0.16193 -9.525,-1.85208 -6.214533,-4.97972 -8.992658,-11.46201 -8.334375,-19.44687 1.377686,1.81901 3.009371,3.36232 4.894792,4.6302 3.161506,0.71941 4.440502,-0.55933 3.836458,-3.83645 -1.110456,-3.06705 -2.168789,-6.15395 -3.175,-9.26042 -3.180291,-12.50209 0.259292,-22.73274 10.31875,-30.69167 -1.235339,4.32409 -1.499923,8.7339 -0.79375,13.22917 1.109663,4.3643 3.887788,6.43705 8.334375,6.21771 2.405327,-1.23772 3.46366,-3.2221 3.175,-5.95313 -0.310885,-2.921 -0.70776,-5.83141 -1.190625,-8.73125 -0.797983,-10.088291 2.773892,-18.246461 10.715625,-24.473961 1.705504,-1.25015 3.557587,-2.13201 5.55625,-2.64583 -3.868473,4.58153 -5.235575,9.82927 -4.101042,15.74271 0.412486,2.09127 1.030023,4.119831 1.852084,6.085421 2.609849,5.24986 5.43216,10.36505 8.466666,15.34583 2.595298,6.23517 3.212571,12.67354 1.852083,19.31458 -0.999595,3.49806 -2.498989,6.76143 -4.497916,9.78959 -0.183886,1.72323 0.609864,2.51698 2.38125,2.38125 2.68896,-0.19976 4.629414,-1.52268 5.820833,-3.96875 1.003565,-1.83092 1.709208,-3.77137 2.116667,-5.82084 2.111639,8.26876 0.127264,15.36833 -5.953125,21.29896 -3.087688,2.56037 -6.615377,3.66289 -10.583333,3.30729 0.750887,-1.59676 0.971285,-3.27236 0.661458,-5.02708 -0.942711,-2.08915 -2.001044,-4.11745 -3.175,-6.08542 -1.114161,-2.6117 -1.202531,-5.25753 -0.264583,-7.9375 3.523191,-7.61709 2.905654,-14.84894 -1.852084,-21.69583 -0.3302,3.26337 -1.388533,6.26216 -3.175,8.99583 -3.095625,3.53669 -6.447102,6.80006 -10.054166,9.78959 -0.931069,1.16496 -1.857111,2.31166 -2.778125,3.43958 z"
       id="path2" />
    <path
       style="clip-rule:evenodd;fill-rule:evenodd;stroke-width:0.264583;image-rendering:optimizeQuality;shape-rendering:geometricPrecision;text-rendering:geometricPrecision"
       fill="#282b2d"
       d="m 89.3227,106.03914 c 0.62838,1.79546 0.89297,3.64754 0.79375,5.55625 -2.02856,0 -4.05686,0 -6.08542,0 -0.30348,-4.12803 -2.50825,-5.67135 -6.61458,-4.63021 -0.24236,0.0735 -0.41857,0.20584 -0.52917,0.39687 -1.64147,1.26312 -2.21482,2.93873 -1.71979,5.02709 0.55007,1.52056 1.56422,2.62308 3.04271,3.30729 3.36232,0.88794 6.53732,2.21086 9.525,3.96875 1.58194,1.35546 2.50798,3.07525 2.77812,5.15937 1.19566,7.52634 -1.93516,11.80359 -9.3927,12.83229 -3.58193,0.52044 -6.93341,-0.0968 -10.05417,-1.85208 -2.60826,-2.26854 -3.57823,-5.09085 -2.91042,-8.46667 2.02856,-0.17647 4.05686,-0.17647 6.08542,0 0.4109,1.07501 0.80777,2.17753 1.19062,3.3073 2.1516,1.84573 4.48892,2.06639 7.01146,0.66145 1.36657,-1.69783 1.67534,-3.5941 0.92604,-5.68854 -0.27675,-0.42068 -0.58552,-0.81756 -0.92604,-1.19062 -2.87972,-1.28403 -5.79014,-2.51884 -8.73125,-3.70417 -5.03819,-3.23982 -6.66988,-7.78192 -4.89479,-13.62604 1.27609,-3.52901 3.78963,-5.51339 7.54063,-5.95313 3.98277,-0.64955 7.68693,0.0558 11.1125,2.11667 0.85248,0.78211 1.47002,1.70815 1.85208,2.77813 z"
       id="path3" />
    <path
       style="clip-rule:evenodd;fill-rule:evenodd;stroke-width:0.264583;image-rendering:optimizeQuality;shape-rendering:geometricPrecision;text-rendering:geometricPrecision"
       fill="#292d2f"
       d="m 157.32061,112.12455 c -0.35242,2.86094 -0.5289,5.81528 -0.52916,8.86354 0,2.99985 0.0881,5.95445 0.26458,8.86355 -0.88133,3.74782 -3.17447,6.17325 -6.87917,7.27604 -2.80881,0.40772 -5.63112,0.49609 -8.46666,0.26458 -4.48363,-0.82418 -7.30568,-3.42609 -8.46667,-7.80521 0.17119,-0.20478 0.25929,-0.46937 0.26458,-0.79375 -0.16853,-6.1259 -0.34475,-12.21131 -0.52916,-18.25625 0.82656,-5.19218 3.82534,-8.23489 8.99583,-9.12812 3.23586,-0.35057 6.41086,-0.086 9.525,0.79375 4.00235,2.04602 5.94281,5.35331 5.82083,9.92187 z"
       id="path4" />
    <path
       style="clip-rule:evenodd;fill-rule:evenodd;stroke-width:0.264583;image-rendering:optimizeQuality;shape-rendering:geometricPrecision;text-rendering:geometricPrecision"
       fill="#292d2f"
       d="m 106.7852,110.00789 c 1.70153,4.70693 3.33322,9.46943 4.89479,14.2875 2.12593,-7.12629 4.37489,-14.18193 6.74687,-21.16667 0.2286,-0.31433 0.49319,-0.62309 0.79375,-0.92604 2.62229,-0.21643 5.22394,-0.17225 7.80521,0.13229 0.0442,11.4218 0.17648,22.79888 0.39688,34.13125 -0.0294,0.16325 -0.11748,0.29554 -0.26459,0.39687 -2.00554,0.21511 -3.98991,0.17119 -5.95312,-0.13229 -0.0881,-7.49644 -0.17648,-14.99314 -0.26458,-22.48958 -2.11773,6.17643 -4.2344,12.35022 -6.35,18.52083 -0.2204,0.2204 -0.44106,0.44106 -0.66146,0.66146 -1.67561,0.17648 -3.35148,0.17648 -5.02709,0 -0.31776,-0.23892 -0.53842,-0.54742 -0.66145,-0.92604 -1.94363,-6.3201 -4.01638,-12.40552 -6.21771,-18.25625 -0.19103,-0.1106 -0.32332,-0.28681 -0.39688,-0.52917 -0.0452,7.64778 -0.17753,15.27678 -0.39687,22.88646 -1.74149,0.21431 -3.46128,0.17013 -5.15938,-0.13229 -0.17647,-11.37708 -0.17647,-22.75417 0,-34.13125 2.49291,-0.30454 5.00645,-0.34872 7.54063,-0.13229 1.11337,2.6326 2.12778,5.32262 3.04271,8.06979 0.10557,-0.0603 0.14949,-0.1487 0.13229,-0.26458 z"
       id="path6" />
    <path
       style="clip-rule:evenodd;fill-rule:evenodd;stroke-width:0.264583;image-rendering:optimizeQuality;shape-rendering:geometricPrecision;text-rendering:geometricPrecision"
       fill="#292c2e"
       d="m 170.2852,121.64955 c -0.0905,-0.22172 -0.2667,-0.31009 -0.52917,-0.26458 -0.22013,4.98184 -0.35242,10.00892 -0.39687,15.08125 -1.94019,0.35269 -3.88065,0.35269 -5.82084,0 -0.13229,-11.46493 -0.17647,-22.93012 -0.13229,-34.39583 2.00739,-0.0831 3.99177,0.005 5.95313,0.26458 0.0445,4.80774 0.17674,9.57024 0.39687,14.2875 3.04721,-4.90008 6.1341,-9.79488 9.26042,-14.68438 2.44607,-0.21616 4.87124,-0.17197 7.27604,0.1323 0.17648,0.26458 0.17648,0.52916 0,0.79375 -3.37344,5.24721 -6.68073,10.53888 -9.92188,15.875 3.48377,5.73272 6.96728,11.46519 10.45105,17.19791 0.12964,0.34211 0.17383,0.69506 0.13229,1.05834 -2.55905,0.0439 -5.11678,0 -7.67292,-0.1323 -3.03503,-5.05671 -6.03356,-10.12798 -8.99583,-15.21354 z"
       id="path8" />
    <path
       style="clip-rule:evenodd;fill-rule:evenodd;stroke-width:0.264583;image-rendering:optimizeQuality;shape-rendering:geometricPrecision;text-rendering:geometricPrecision"
       fill="#2a2d30"
       d="m 197.80186,107.89122 c 0,2.91042 0,5.82083 0,8.73125 3.26443,-0.0442 6.52754,0 9.78959,0.13229 0.13229,0.13229 0.26458,0.26458 0.39687,0.39688 0.17648,1.76397 0.17648,3.52769 0,5.29166 -0.10133,0.14711 -0.23363,0.23522 -0.39687,0.26459 -3.30544,-0.30692 -6.65692,-0.35111 -10.05417,-0.1323 -0.3048,2.75776 -0.34898,5.53588 -0.13229,8.33438 3.90393,0.2622 7.82849,0.35031 11.77396,0.26458 0,1.85209 0,3.70417 0,5.55625 -5.99731,0 -11.99436,0 -17.99167,0 -0.0442,-11.46572 0,-22.93091 0.13229,-34.39583 5.84571,-0.30692 11.71073,-0.3511 17.59479,-0.13229 0.25903,1.78435 0.34714,3.59251 0.26459,5.42396 -3.98965,-0.0879 -7.78219,2.6e-4 -11.37709,0.26458 z"
       id="path10" />
    <path
       style="clip-rule:evenodd;fill-rule:evenodd;stroke-width:0.264583;image-rendering:optimizeQuality;shape-rendering:geometricPrecision;text-rendering:geometricPrecision"
       fill="#f5f5f5"
       d="m 148.58936,108.1558 c 0.92605,1.05913 1.4994,2.29368 1.7198,3.70417 0.17647,5.02708 0.17647,10.05417 0,15.08125 -0.17701,1.10358 -0.48578,2.16191 -0.92605,3.175 -2.82231,2.11667 -5.64435,2.11667 -8.46666,0 -0.38047,-0.8509 -0.68924,-1.73276 -0.92604,-2.64583 -0.17648,-5.29167 -0.17648,-10.58334 0,-15.875 0.17515,-0.61198 0.30744,-1.22926 0.39687,-1.85209 1.51871,-2.02141 3.54727,-2.77098 6.08542,-2.24896 0.73527,0.14844 1.44092,0.36883 2.11666,0.66146 z"
       id="path12" />
    <path
       style="clip-rule:evenodd;fill-rule:evenodd;stroke-width:0.264583;image-rendering:optimizeQuality;shape-rendering:geometricPrecision;text-rendering:geometricPrecision"
       fill="#ef662c"
       d="m 143.82686,143.34539 c 8.73125,0 17.4625,0 26.19375,0 0.0836,2.18334 -0.005,4.34419 -0.26458,6.48229 -2.78024,0.045 -5.51418,0.17727 -8.20208,0.39687 -0.17648,10.58334 -0.35269,21.16667 -0.52917,31.75 -0.0881,-42.33333 -0.17648,-42.33333 -0.26458,0 -2.46936,0 -4.93898,0 -7.40834,0 0.0442,-10.67197 0,-21.34341 -0.13229,-32.01458 -3.10965,-0.26141 -6.24046,-0.34952 -9.39271,-0.26458 0,-2.11667 0,-4.23334 0,-6.35 z"
       id="path22" />
    <path
       style="clip-rule:evenodd;fill-rule:evenodd;stroke-width:0.264583;image-rendering:optimizeQuality;shape-rendering:geometricPrecision;text-rendering:geometricPrecision"
       fill="#ef662c"
       d="m 175.57686,143.34539 c 7.14375,0 14.2875,0 21.43125,0 0,2.11666 0,4.23333 0,6.35 -4.67439,0 -9.34852,0 -14.02291,0 -0.0868,3.22209 0.001,6.39709 0.26458,9.525 3.88144,-0.0442 7.76208,0 11.64167,0.13229 0.13229,0.13229 0.26458,0.26458 0.39687,0.39687 0.21749,2.07566 0.17357,4.10395 -0.13229,6.08542 -4.00262,0.16827 -7.97137,0.34475 -11.90625,0.52917 0,2.99852 0,5.99731 0,8.99583 4.53999,0.26379 9.12601,0.35189 13.75833,0.26458 0,2.11667 0,4.23334 0,6.35 -7.05564,0 -14.11102,0 -21.16666,0 -0.26432,-12.8315 -0.35243,-25.70797 -0.26459,-38.62916 z"
       id="path23" />
    <path
       style="clip-rule:evenodd;fill-rule:evenodd;stroke-width:0.264583;image-rendering:optimizeQuality;shape-rendering:geometricPrecision;text-rendering:geometricPrecision"
       fill="#ef652b"
       d="m 95.40812,147.8433 c 0.7059,-1.23719 1.32344,-2.6924 1.85208,-4.36562 3.17368,-0.13229 6.34868,-0.17648 9.525,-0.13229 0,12.87647 0,25.75269 0,38.62916 -2.29315,0 -4.58602,0 -6.87917,0 0.0878,-8.60001 -5.3e-4,-17.15505 -0.26458,-25.66458 -2.7387,6.95801 -5.47291,14.10176 -8.20208,21.43125 -0.13891,0.18309 -0.31539,0.31538 -0.52917,0.39687 -1.85208,0.17648 -3.70417,0.17648 -5.55625,0 -0.24236,-0.099 -0.46302,-0.23124 -0.66146,-0.39687 -2.51963,-7.0956 -5.12127,-13.97476 -7.80521,-20.6375 -0.22013,8.15737 -0.35242,16.35945 -0.39687,24.60625 -2.29315,0.35269 -4.58603,0.35269 -6.87917,0 -0.13229,-12.78784 -0.17648,-25.57621 -0.13229,-38.36458 0.0294,-0.16325 0.11747,-0.29554 0.26458,-0.39688 2.99853,-0.17648 5.99731,-0.17648 8.99584,0 0.21378,0.0815 0.39026,0.21378 0.52916,0.39688 2.9472,8.13673 5.94598,16.2507 8.99584,24.34166 2.44051,-6.61802 4.82176,-13.2326 7.14375,-19.84375 z"
       id="path24" />
    <path
       style="clip-rule:evenodd;fill-rule:evenodd;stroke-width:0.264583;image-rendering:optimizeQuality;shape-rendering:geometricPrecision;text-rendering:geometricPrecision"
       fill="#ef642a"
       d="m 135.62478,176.15372 c 0.24633,-0.5678 0.15796,-1.14088 -0.26458,-1.71979 -4.23334,-0.17648 -8.46667,-0.17648 -12.7,0 -0.78687,1.50468 -1.13956,3.048 -1.05834,4.63021 -0.30136,1.16496 -0.74242,2.26747 -1.32291,3.30729 -2.64584,0.17647 -5.29167,0.17647 -7.9375,0 -0.1479,-0.19183 -0.23601,-0.41222 -0.26459,-0.66146 3.77402,-12.82144 7.65467,-25.60955 11.64167,-38.36458 0.13891,-0.1831 0.31538,-0.31539 0.52917,-0.39688 3.175,-0.17648 6.35,-0.17648 9.525,0 0.31776,0.23892 0.53843,0.54742 0.66146,0.92604 3.76899,12.56242 7.51707,25.13013 11.24479,37.70313 -0.0225,0.29289 -0.11086,0.55747 -0.26459,0.79375 -2.64583,0.17647 -5.29166,0.17647 -7.9375,0 -0.71887,-2.03677 -1.33614,-4.10925 -1.85208,-6.21771 z"
       id="path25" />
    <path
       style="clip-rule:evenodd;fill-rule:evenodd;stroke-width:0.264583;image-rendering:optimizeQuality;shape-rendering:geometricPrecision;text-rendering:geometricPrecision"
       fill="#292c2e"
       d="m 28.468533,153.13497 c 0.623623,-0.0431 1.240895,7.9e-4 1.852083,0.13229 2.489729,1.26656 4.9149,2.6334 7.276042,4.10104 0.242622,3.27845 0.154516,6.54156 -0.264584,9.78959 -2.520685,1.50283 -5.122598,2.82575 -7.805208,3.96875 -2.487877,-1.11152 -4.957498,-2.30214 -7.408333,-3.57188 -0.396875,-0.2204 -0.705644,-0.52917 -0.926042,-0.92604 -0.176477,-2.99852 -0.176477,-5.99731 0,-8.99583 2.400829,-1.56793 4.826265,-3.06732 7.276042,-4.49792 z"
       id="path28" />
    <path
       style="clip-rule:evenodd;fill-rule:evenodd;stroke-width:0.264583;image-rendering:optimizeQuality;shape-rendering:geometricPrecision;text-rendering:geometricPrecision"
       fill="#faf9f8"
       d="m 133.24353,167.42247 c -2.86305,0.26326 -5.77347,0.35137 -8.73125,0.26458 1.45415,-5.2869 2.90936,-10.57857 4.36563,-15.875 1.53643,5.1824 2.99164,10.38569 4.36562,15.61042 z"
       id="path30" />
    <path
       style="clip-rule:evenodd;fill-rule:evenodd;stroke-width:0.264583;image-rendering:optimizeQuality;shape-rendering:geometricPrecision;text-rendering:geometricPrecision"
       fill="#282c2e"
       d="m 19.208116,168.4808 c 3.297767,0.96547 6.340475,2.4646 9.128125,4.49792 0.253471,3.2004 0.165365,6.3754 -0.264583,9.525 -2.515659,1.59411 -5.117307,3.0054 -7.805209,4.23333 -2.135187,-0.93504 -4.251854,-1.94918 -6.349999,-3.04271 -0.742157,-0.39132 -1.403615,-0.8763 -1.984375,-1.4552 -0.214842,-3.09907 -0.170657,-6.18596 0.132291,-9.26042 2.442898,-1.4396 4.824148,-2.93899 7.14375,-4.49792 z"
       id="path34" />
    <path
       style="clip-rule:evenodd;fill-rule:evenodd;stroke-width:0.264583;image-rendering:optimizeQuality;shape-rendering:geometricPrecision;text-rendering:geometricPrecision"
       fill="#292d2f"
       d="m 35.876866,185.41414 c -1.52744,-0.98584 -3.11494,-1.91188 -4.7625,-2.77813 -0.165629,-0.19844 -0.297921,-0.4191 -0.396875,-0.66146 -0.209021,-3.01069 -0.164835,-6.00948 0.132292,-8.99583 2.33336,-1.83012 4.891087,-3.32952 7.672916,-4.49792 2.677584,1.29487 5.323417,2.66171 7.9375,4.10104 0.165629,0.19844 0.297921,0.4191 0.396875,0.66146 0.253206,3.11256 0.164836,6.19919 -0.264583,9.26042 -2.446867,1.3335 -4.872038,2.7006 -7.276042,4.10104 -1.362869,0.19923 -2.509573,-0.19764 -3.439583,-1.19062 z"
       id="path35" />
  </g>
</svg>
