<?xml version="1.0" encoding="UTF-8" standalone="no"?>
<svg
   version="1.1"
   width="787.86292"
   height="396.5"
   style="clip-rule:evenodd;fill-rule:evenodd;image-rendering:optimizeQuality;shape-rendering:geometricPrecision;text-rendering:geometricPrecision"
   id="svg42"
   sodipodi:docname="smokemate logo full.svg"
   inkscape:version="1.4.2 (f4327f4, 2025-05-13)"
   xmlns:inkscape="http://www.inkscape.org/namespaces/inkscape"
   xmlns:sodipodi="http://sodipodi.sourceforge.net/DTD/sodipodi-0.dtd"
   xmlns="http://www.w3.org/2000/svg"
   xmlns:svg="http://www.w3.org/2000/svg">
  <defs
     id="defs42" />
  <sodipodi:namedview
     id="namedview42"
     pagecolor="#ffffff"
     bordercolor="#000000"
     borderopacity="0.25"
     inkscape:showpageshadow="2"
     inkscape:pageopacity="0.0"
     inkscape:pagecheckerboard="0"
     inkscape:deskcolor="#d1d1d1"
     inkscape:zoom="2.2558594"
     inkscape:cx="386.54892"
     inkscape:cy="187.73333"
     inkscape:window-width="2560"
     inkscape:window-height="1373"
     inkscape:window-x="-9"
     inkscape:window-y="-9"
     inkscape:window-maximized="1"
     inkscape:current-layer="svg42" />
  <g
     id="g2"
     transform="translate(-104.64255,-311)">
    <path
       style="opacity:1"
       fill="#ef642b"
       d="m 174.5,556.5 c -5.543,8.785 -9.043,18.452 -10.5,29 -0.667,7.333 -0.667,14.667 0,22 0.159,1.843 0.659,2.509 1.5,2 1.351,5.205 3.684,10.038 7,14.5 -12.942,2.945 -24.942,0.612 -36,-7 -23.488,-18.821 -33.988,-43.321 -31.5,-73.5 5.207,6.875 11.374,12.708 18.5,17.5 11.949,2.719 16.783,-2.114 14.5,-14.5 -4.197,-11.592 -8.197,-23.259 -12,-35 -12.02,-47.252 0.98,-85.919 39,-116 -4.669,16.343 -5.669,33.01 -3,50 4.194,16.495 14.694,24.329 31.5,23.5 9.091,-4.678 13.091,-12.178 12,-22.5 -1.175,-11.04 -2.675,-22.04 -4.5,-33 -3.016,-38.129 10.484,-68.963 40.5,-92.5 6.446,-4.725 13.446,-8.058 21,-10 -14.621,17.316 -19.788,37.15 -15.5,59.5 1.559,7.904 3.893,15.571 7,23 9.864,19.842 20.531,39.175 32,58 9.809,23.566 12.142,47.9 7,73 -3.778,13.221 -9.445,25.555 -17,37 -0.695,6.513 2.305,9.513 9,9 10.163,-0.755 17.497,-5.755 22,-15 3.793,-6.92 6.46,-14.254 8,-22 7.981,31.252 0.481,58.085 -22.5,80.5 -11.67,9.677 -25.003,13.844 -40,12.5 2.838,-6.035 3.671,-12.368 2.5,-19 -3.563,-7.896 -7.563,-15.562 -12,-23 -4.211,-9.871 -4.545,-19.871 -1,-30 13.316,-28.789 10.982,-56.122 -7,-82 -1.248,12.334 -5.248,23.668 -12,34 -11.7,13.367 -24.367,25.701 -38,37 -3.519,4.403 -7.019,8.737 -10.5,13 z"
       id="path2" />
  </g>
  <g
     id="g3"
     transform="translate(-104.64255,-311)">
    <path
       style="opacity:1"
       fill="#282b2d"
       d="m 437.5,402.5 c 2.375,6.786 3.375,13.786 3,21 -7.667,0 -15.333,0 -23,0 -1.147,-15.602 -9.48,-21.435 -25,-17.5 -0.916,0.278 -1.582,0.778 -2,1.5 -6.204,4.774 -8.371,11.107 -6.5,19 2.079,5.747 5.912,9.914 11.5,12.5 12.708,3.356 24.708,8.356 36,15 5.979,5.123 9.479,11.623 10.5,19.5 4.519,28.446 -7.314,44.612 -35.5,48.5 -13.538,1.967 -26.205,-0.366 -38,-7 -9.858,-8.574 -13.524,-19.241 -11,-32 7.667,-0.667 15.333,-0.667 23,0 1.553,4.063 3.053,8.23 4.5,12.5 8.132,6.976 16.966,7.81 26.5,2.5 5.165,-6.417 6.332,-13.584 3.5,-21.5 -1.046,-1.59 -2.213,-3.09 -3.5,-4.5 -10.884,-4.853 -21.884,-9.52 -33,-14 -19.042,-12.245 -25.209,-29.412 -18.5,-51.5 4.823,-13.338 14.323,-20.838 28.5,-22.5 15.053,-2.455 29.053,0.211 42,8 3.222,2.956 5.556,6.456 7,10.5 z"
       id="path3" />
  </g>
  <g
     id="g4"
     transform="translate(-104.64255,-311)">
    <path
       style="opacity:1"
       fill="#292d2f"
       d="m 694.5,425.5 c -1.332,10.813 -1.999,21.979 -2,33.5 0,11.338 0.333,22.505 1,33.5 -3.331,14.165 -11.998,23.332 -26,27.5 -10.616,1.541 -21.283,1.875 -32,1 -16.946,-3.115 -27.612,-12.949 -32,-29.5 0.647,-0.774 0.98,-1.774 1,-3 -0.637,-23.153 -1.303,-46.153 -2,-69 3.124,-19.624 14.458,-31.124 34,-34.5 12.23,-1.325 24.23,-0.325 36,3 15.127,7.733 22.461,20.233 22,37.5 z"
       id="path4" />
  </g>
  <g
     id="g5"
     transform="translate(-104.64255,-311)">
    <path
       style="opacity:1"
       fill="#080b0d"
       d="m 503.5,417.5 c 0.065,0.438 -0.101,0.772 -0.5,1 -3.458,-10.383 -7.292,-20.55 -11.5,-30.5 -9.578,-0.818 -19.078,-0.651 -28.5,0.5 -0.667,43 -0.667,86 0,129 6.418,1.143 12.918,1.31 19.5,0.5 0.829,-28.761 1.329,-57.595 1.5,-86.5 0.278,0.916 0.778,1.582 1.5,2 0.167,28.002 0,56.002 -0.5,84 -0.5,0.5 -1,1 -1.5,1.5 -7.247,0.812 -14.414,0.646 -21.5,-0.5 -0.667,-43.667 -0.667,-87.333 0,-131 10.09,-1.152 20.256,-1.319 30.5,-0.5 4.351,9.885 8.018,20.052 11,30.5 z"
       id="path5" />
  </g>
  <g
     id="g6"
     transform="translate(-104.64255,-311)">
    <path
       style="opacity:1"
       fill="#292d2f"
       d="m 503.5,417.5 c 6.431,17.79 12.598,35.79 18.5,54 8.035,-26.934 16.535,-53.601 25.5,-80 0.864,-1.188 1.864,-2.355 3,-3.5 9.911,-0.818 19.744,-0.651 29.5,0.5 0.167,43.169 0.667,86.169 1.5,129 -0.111,0.617 -0.444,1.117 -1,1.5 -7.58,0.813 -15.08,0.647 -22.5,-0.5 -0.333,-28.333 -0.667,-56.667 -1,-85 -8.004,23.344 -16.004,46.678 -24,70 -0.833,0.833 -1.667,1.667 -2.5,2.5 -6.333,0.667 -12.667,0.667 -19,0 -1.201,-0.903 -2.035,-2.069 -2.5,-3.5 -7.346,-23.887 -15.18,-46.887 -23.5,-69 -0.722,-0.418 -1.222,-1.084 -1.5,-2 -0.171,28.905 -0.671,57.739 -1.5,86.5 -6.582,0.81 -13.082,0.643 -19.5,-0.5 -0.667,-43 -0.667,-86 0,-129 9.422,-1.151 18.922,-1.318 28.5,-0.5 4.208,9.95 8.042,20.117 11.5,30.5 0.399,-0.228 0.565,-0.562 0.5,-1 z"
       id="path6" />
  </g>
  <g
     id="g7"
     transform="translate(-104.64255,-311)">
    <path
       style="opacity:1"
       fill="#000001"
       d="m 717.5,387.5 c -0.167,43.335 0,86.668 0.5,130 7.333,1.333 14.667,1.333 22,0 0.168,-19.171 0.668,-38.171 1.5,-57 0,19 0,38 0,57 -0.111,0.617 -0.444,1.117 -1,1.5 -7.913,0.814 -15.746,0.647 -23.5,-0.5 -0.831,-43.835 -0.665,-87.502 0.5,-131 z"
       id="path7" />
  </g>
  <g
     id="g8"
     transform="translate(-104.64255,-311)">
    <path
       style="opacity:1"
       fill="#292c2e"
       d="m 743.5,461.5 c -0.342,-0.838 -1.008,-1.172 -2,-1 -0.832,18.829 -1.332,37.829 -1.5,57 -7.333,1.333 -14.667,1.333 -22,0 -0.5,-43.332 -0.667,-86.665 -0.5,-130 7.587,-0.314 15.087,0.019 22.5,1 0.168,18.171 0.668,36.171 1.5,54 11.517,-18.52 23.184,-37.02 35,-55.5 9.245,-0.817 18.411,-0.65 27.5,0.5 0.667,1 0.667,2 0,3 -12.75,19.832 -25.25,39.832 -37.5,60 13.167,21.667 26.333,43.333 39.5,65 0.49,1.293 0.657,2.627 0.5,4 -9.672,0.166 -19.339,0 -29,-0.5 -11.471,-19.112 -22.804,-38.279 -34,-57.5 z"
       id="path8" />
  </g>
  <g
     id="g9"
     transform="translate(-104.64255,-311)">
    <path
       style="opacity:1"
       fill="#010203"
       d="m 717.5,387.5 c 7.735,-1.327 15.568,-1.327 23.5,0 0.5,18.33 0.667,36.664 0.5,55 -0.832,-17.829 -1.332,-35.829 -1.5,-54 -7.413,-0.981 -14.913,-1.314 -22.5,-1 z"
       id="path9" />
  </g>
  <g
     id="g10"
     transform="translate(-104.64255,-311)">
    <path
       style="opacity:1"
       fill="#2a2d30"
       d="m 847.5,409.5 c 0,11 0,22 0,33 12.338,-0.167 24.671,0 37,0.5 0.5,0.5 1,1 1.5,1.5 0.667,6.667 0.667,13.333 0,20 -0.383,0.556 -0.883,0.889 -1.5,1 -12.493,-1.16 -25.16,-1.327 -38,-0.5 -1.152,10.423 -1.319,20.923 -0.5,31.5 14.755,0.991 29.588,1.324 44.5,1 0,7 0,14 0,21 -22.667,0 -45.333,0 -68,0 -0.167,-43.335 0,-86.668 0.5,-130 22.094,-1.16 44.261,-1.327 66.5,-0.5 0.979,6.744 1.312,13.578 1,20.5 -15.079,-0.332 -29.413,10e-4 -43,1 z"
       id="path10" />
  </g>
  <g
     id="g11"
     transform="translate(-104.64255,-311)">
    <path
       style="opacity:1"
       fill="#000101"
       d="m 581.5,517.5 c -0.833,-42.831 -1.333,-85.831 -1.5,-129 -9.756,-1.151 -19.589,-1.318 -29.5,-0.5 -1.136,1.145 -2.136,2.312 -3,3.5 -0.203,-1.89 0.463,-3.39 2,-4.5 10.577,-0.819 21.077,-0.652 31.5,0.5 0.5,43.332 0.667,86.665 0.5,130 z"
       id="path11" />
  </g>
  <g
     id="g12"
     transform="translate(-104.64255,-311)"
     style="fill:#0f2537;fill-opacity:1">
    <path
       style="opacity:1;fill:#0f2537;fill-opacity:1"
       fill="#f5f5f5"
       d="m 661.5,410.5 c 3.5,4.003 5.667,8.669 6.5,14 0.667,19 0.667,38 0,57 -0.669,4.171 -1.836,8.171 -3.5,12 -10.667,8 -21.333,8 -32,0 -1.438,-3.216 -2.605,-6.549 -3.5,-10 -0.667,-20 -0.667,-40 0,-60 0.662,-2.313 1.162,-4.646 1.5,-7 5.74,-7.64 13.407,-10.473 23,-8.5 2.779,0.561 5.446,1.394 8,2.5 z"
       id="path12" />
  </g>
  <g
     id="g13"
     transform="translate(-104.64255,-311)">
    <path
       style="opacity:1"
       fill="#040405"
       d="m 602.5,419.5 c 0.697,22.847 1.363,45.847 2,69 -0.02,1.226 -0.353,2.226 -1,3 -0.971,-23.967 -1.304,-47.967 -1,-72 z"
       id="path13" />
  </g>
  <g
     id="g14"
     transform="translate(-104.64255,-311)">
    <path
       style="opacity:1"
       fill="#111314"
       d="m 437.5,402.5 c 1.946,2.234 3.113,4.901 3.5,8 0.802,4.919 0.635,9.752 -0.5,14.5 -8.021,0.832 -16.021,0.665 -24,-0.5 0.368,-12.131 -5.465,-18.131 -17.5,-18 -2.865,0.184 -5.698,0.518 -8.5,1 0.418,-0.722 1.084,-1.222 2,-1.5 15.52,-3.935 23.853,1.898 25,17.5 7.667,0 15.333,0 23,0 0.375,-7.214 -0.625,-14.214 -3,-21 z"
       id="path14" />
  </g>
  <g
     id="g15"
     transform="translate(-104.64255,-311)">
    <path
       style="opacity:1"
       fill="#040507"
       d="m 630.5,416.5 c -0.338,2.354 -0.838,4.687 -1.5,7 -0.667,20 -0.667,40 0,60 0.895,3.451 2.062,6.784 3.5,10 -2.715,-2.264 -4.215,-5.264 -4.5,-9 -0.667,-20.667 -0.667,-41.333 0,-62 0.24,-2.352 1.073,-4.352 2.5,-6 z"
       id="path15" />
  </g>
  <g
     id="g16"
     transform="translate(-104.64255,-311)">
    <path
       style="opacity:1"
       fill="#060708"
       d="m 661.5,410.5 c 1.517,0.011 2.684,0.677 3.5,2 1.893,3.118 3.226,6.451 4,10 0.667,20.333 0.667,40.667 0,61 -0.183,4.025 -1.683,7.358 -4.5,10 1.664,-3.829 2.831,-7.829 3.5,-12 0.667,-19 0.667,-38 0,-57 -0.833,-5.331 -3,-9.997 -6.5,-14 z"
       id="path16" />
  </g>
  <g
     id="g17"
     transform="translate(-104.64255,-311)">
    <path
       style="opacity:1"
       fill="#0f1214"
       d="m 694.5,425.5 c 0.267,22.353 -0.066,44.686 -1,67 -0.667,-10.995 -1,-22.162 -1,-33.5 10e-4,-11.521 0.668,-22.687 2,-33.5 z"
       id="path17" />
  </g>
  <g
     id="g18"
     transform="translate(-104.64255,-311)">
    <path
       style="opacity:1"
       fill="#111315"
       d="m 847.5,409.5 c 13.587,-0.999 27.921,-1.332 43,-1 0.312,-6.922 -0.021,-13.756 -1,-20.5 -22.239,-0.827 -44.406,-0.66 -66.5,0.5 -0.5,43.332 -0.667,86.665 -0.5,130 22.667,0 45.333,0 68,0 0,-7 0,-14 0,-21 -14.912,0.324 -29.745,-0.009 -44.5,-1 -0.819,-10.577 -0.652,-21.077 0.5,-31.5 12.84,-0.827 25.507,-0.66 38,0.5 -12.333,0 -24.667,0 -37,0 0,10.333 0,20.667 0,31 14.912,-0.324 29.745,0.009 44.5,1 0.812,7.247 0.646,14.414 -0.5,21.5 -23.573,0.827 -47.073,0.66 -70.5,-0.5 -0.667,-43.667 -0.667,-87.333 0,-131 23.094,-1.16 46.261,-1.327 69.5,-0.5 0.981,7.413 1.314,14.913 1,22.5 -14.667,0 -29.333,0 -44,0 z"
       id="path18" />
  </g>
  <g
     id="g20"
     transform="translate(-104.64255,-311)">
    <path
       style="opacity:1"
       fill="#ef5212"
       d="m 710.5,569.5 c 10.159,-0.83 20.492,-1.33 31,-1.5 0.982,-8.081 1.316,-16.248 1,-24.5 -33,0 -66,0 -99,0 0.111,-0.617 0.444,-1.117 1,-1.5 32.667,-0.667 65.333,-0.667 98,0 1.333,9 1.333,18 0,27 -10.661,0.5 -21.328,0.667 -32,0.5 z"
       id="path20" />
  </g>
  <g
     id="g21"
     transform="translate(-104.64255,-311)">
    <path
       style="opacity:1"
       fill="#ee5514"
       d="m 844.5,567.5 c 0,-8 0,-16 0,-24 -27,0 -54,0 -81,0 -0.333,0 -0.667,0 -1,0 0.418,-0.722 1.084,-1.222 2,-1.5 26.667,-0.667 53.333,-0.667 80,0 0.5,0.5 1,1 1.5,1.5 0.667,7.667 0.667,15.333 0,23 -0.383,0.556 -0.883,0.889 -1.5,1 z"
       id="path21" />
  </g>
  <g
     id="g22"
     transform="translate(-104.64255,-311)">
    <path
       style="opacity:1"
       fill="#ef662c"
       d="m 643.5,543.5 c 33,0 66,0 99,0 0.316,8.252 -0.018,16.419 -1,24.5 -10.508,0.17 -20.841,0.67 -31,1.5 -0.667,40 -1.333,80 -2,120 -0.333,-160 -0.667,-160 -1,0 -9.333,0 -18.667,0 -28,0 0.167,-40.335 0,-80.668 -0.5,-121 -11.753,-0.988 -23.586,-1.321 -35.5,-1 0,-8 0,-16 0,-24 z"
       id="path22" />
  </g>
  <g
     id="g23"
     transform="translate(-104.64255,-311)">
    <path
       style="opacity:1"
       fill="#ef662c"
       d="m 763.5,543.5 c 27,0 54,0 81,0 0,8 0,16 0,24 -17.667,0 -35.333,0 -53,0 -0.328,12.178 0.005,24.178 1,36 14.67,-0.167 29.337,0 44,0.5 0.5,0.5 1,1 1.5,1.5 0.822,7.845 0.656,15.511 -0.5,23 -15.128,0.636 -30.128,1.303 -45,2 0,11.333 0,22.667 0,34 17.159,0.997 34.492,1.33 52,1 0,8 0,16 0,24 -26.667,0 -53.333,0 -80,0 -0.999,-48.497 -1.332,-97.164 -1,-146 z"
       id="path23" />
  </g>
  <g
     id="g24"
     transform="translate(-104.64255,-311)">
    <path
       style="opacity:1"
       fill="#ef652b"
       d="m 460.5,560.5 c 2.668,-4.676 5.002,-10.176 7,-16.5 11.995,-0.5 23.995,-0.667 36,-0.5 0,48.667 0,97.333 0,146 -8.667,0 -17.333,0 -26,0 0.332,-32.504 -0.002,-64.838 -1,-97 -10.351,26.298 -20.685,53.298 -31,81 -0.525,0.692 -1.192,1.192 -2,1.5 -7,0.667 -14,0.667 -21,0 -0.916,-0.374 -1.75,-0.874 -2.5,-1.5 -9.523,-26.818 -19.356,-52.818 -29.5,-78 -0.832,30.831 -1.332,61.831 -1.5,93 -8.667,1.333 -17.333,1.333 -26,0 -0.5,-48.332 -0.667,-96.666 -0.5,-145 0.111,-0.617 0.444,-1.117 1,-1.5 11.333,-0.667 22.667,-0.667 34,0 0.808,0.308 1.475,0.808 2,1.5 11.139,30.753 22.473,61.42 34,92 9.224,-25.013 18.224,-50.013 27,-75 z"
       id="path24" />
  </g>
  <g
     id="g25"
     transform="translate(-104.64255,-311)">
    <path
       style="opacity:1"
       fill="#ef642a"
       d="m 612.5,667.5 c 0.931,-2.146 0.597,-4.312 -1,-6.5 -16,-0.667 -32,-0.667 -48,0 -2.974,5.687 -4.307,11.52 -4,17.5 -1.139,4.403 -2.806,8.57 -5,12.5 -10,0.667 -20,0.667 -30,0 -0.559,-0.725 -0.892,-1.558 -1,-2.5 14.264,-48.459 28.931,-96.792 44,-145 0.525,-0.692 1.192,-1.192 2,-1.5 12,-0.667 24,-0.667 36,0 1.201,0.903 2.035,2.069 2.5,3.5 14.245,47.48 28.411,94.98 42.5,142.5 -0.085,1.107 -0.419,2.107 -1,3 -10,0.667 -20,0.667 -30,0 -2.717,-7.698 -5.05,-15.531 -7,-23.5 z"
       id="path25" />
  </g>
  <g
     id="g26"
     transform="translate(-104.64255,-311)">
    <path
       style="opacity:1"
       fill="#ec3100"
       d="m 762.5,543.5 c 0.333,0 0.667,0 1,0 -0.332,48.836 10e-4,97.503 1,146 0,0.667 -0.333,1 -1,1 -0.999,-48.83 -1.332,-97.83 -1,-147 z"
       id="path26" />
  </g>
  <g
     id="g27"
     transform="translate(-104.64255,-311)">
    <path
       style="opacity:1"
       fill="#ef440c"
       d="m 174.5,556.5 c -8.51,16.729 -11.51,34.396 -9,53 -0.841,0.509 -1.341,-0.157 -1.5,-2 -0.667,-7.333 -0.667,-14.667 0,-22 1.457,-10.548 4.957,-20.215 10.5,-29 z"
       id="path27" />
  </g>
  <g
     id="g28"
     transform="translate(-104.64255,-311)">
    <path
       style="opacity:1"
       fill="#292c2e"
       d="m 207.5,580.5 c 2.357,-0.163 4.69,0.003 7,0.5 9.41,4.787 18.576,9.953 27.5,15.5 0.917,12.391 0.584,24.724 -1,37 -9.527,5.68 -19.361,10.68 -29.5,15 -9.403,-4.201 -18.737,-8.701 -28,-13.5 -1.5,-0.833 -2.667,-2 -3.5,-3.5 -0.667,-11.333 -0.667,-22.667 0,-34 9.074,-5.926 18.241,-11.593 27.5,-17 z"
       id="path28" />
  </g>
  <g
     id="g29"
     transform="translate(-104.64255,-311)">
    <path
       style="opacity:1"
       fill="#ee3604"
       d="m 643.5,543.5 c 0,8 0,16 0,24 11.914,-0.321 23.747,0.012 35.5,1 0.5,40.332 0.667,80.665 0.5,121 -0.333,0 -0.667,0 -1,0 0,-40 0,-80 0,-120 -11.671,0.167 -23.338,0 -35,-0.5 -1.328,-8.598 -1.328,-17.098 0,-25.5 z"
       id="path29" />
  </g>
  <g
     id="g30"
     transform="translate(-104.64255,-311)">
    <path
       style="opacity:1"
       fill="#faf9f8"
       d="m 603.5,634.5 c -10.821,0.995 -21.821,1.328 -33,1 5.496,-19.982 10.996,-39.982 16.5,-60 5.807,19.587 11.307,39.253 16.5,59 z"
       id="path30" />
  </g>
  <g
     id="g31"
     transform="translate(-104.64255,-311)">
    <path
       style="opacity:1"
       fill="#ed3800"
       d="m 844.5,567.5 c -17.159,0.997 -34.492,1.33 -52,1 0,11.667 0,23.333 0,35 -0.995,-11.822 -1.328,-23.822 -1,-36 17.667,0 35.333,0 53,0 z"
       id="path31" />
  </g>
  <g
     id="g32"
     transform="translate(-104.64255,-311)">
    <path
       style="opacity:1"
       fill="#ee3300"
       d="m 837.5,628.5 c -0.111,0.617 -0.444,1.117 -1,1.5 -14.329,0.5 -28.663,0.667 -43,0.5 -0.333,0 -0.667,0 -1,0 14.872,-0.697 29.872,-1.364 45,-2 z"
       id="path32" />
  </g>
  <g
     id="g33"
     transform="translate(-104.64255,-311)">
    <path
       style="opacity:1"
       fill="#f29673"
       d="m 603.5,634.5 c 0.543,0.06 0.876,0.393 1,1 -11.493,1.324 -22.826,1.324 -34,0 11.179,0.328 22.179,-0.005 33,-1 z"
       id="path33" />
  </g>
  <g
     id="g34"
     transform="translate(-104.64255,-311)">
    <path
       style="opacity:1"
       fill="#282c2e"
       d="m 172.5,638.5 c 12.464,3.649 23.964,9.315 34.5,17 0.958,12.096 0.625,24.096 -1,36 -9.508,6.025 -19.341,11.359 -29.5,16 -8.07,-3.534 -16.07,-7.367 -24,-11.5 -2.805,-1.479 -5.305,-3.312 -7.5,-5.5 -0.812,-11.713 -0.645,-23.38 0.5,-35 9.233,-5.441 18.233,-11.108 27,-17 z"
       id="path34" />
  </g>
  <g
     id="g35"
     transform="translate(-104.64255,-311)">
    <path
       style="opacity:1"
       fill="#292d2f"
       d="m 235.5,702.5 c -5.773,-3.726 -11.773,-7.226 -18,-10.5 -0.626,-0.75 -1.126,-1.584 -1.5,-2.5 -0.79,-11.379 -0.623,-22.713 0.5,-34 8.819,-6.917 18.486,-12.584 29,-17 10.12,4.894 20.12,10.06 30,15.5 0.626,0.75 1.126,1.584 1.5,2.5 0.957,11.764 0.623,23.43 -1,35 -9.248,5.04 -18.414,10.207 -27.5,15.5 -5.151,0.753 -9.485,-0.747 -13,-4.5 z"
       id="path35" />
  </g>
  <g
     id="g36"
     transform="translate(-104.64255,-311)">
    <path
       style="opacity:1"
       fill="#ee4705"
       d="m 362.5,543.5 c -0.167,48.334 0,96.668 0.5,145 8.667,1.333 17.333,1.333 26,0 0.168,-31.169 0.668,-62.169 1.5,-93 0.167,31.335 0,62.668 -0.5,94 -0.5,0.5 -1,1 -1.5,1.5 -8.333,0.667 -16.667,0.667 -25,0 -0.5,-0.5 -1,-1 -1.5,-1.5 -0.832,-48.835 -0.665,-97.502 0.5,-146 z"
       id="path36" />
  </g>
  <g
     id="g37"
     transform="translate(-104.64255,-311)">
    <path
       style="opacity:1"
       fill="#ee500f"
       d="m 476.5,592.5 c 0.998,32.162 1.332,64.496 1,97 8.667,0 17.333,0 26,0 0,-48.667 0,-97.333 0,-146 -12.005,-0.167 -24.005,0 -36,0.5 -1.998,6.324 -4.332,11.824 -7,16.5 1.65,-6.454 3.983,-12.62 7,-18.5 12,-0.667 24,-0.667 36,0 0.5,0.5 1,1 1.5,1.5 0.667,48.667 0.667,97.333 0,146 -0.5,0.5 -1,1 -1.5,1.5 -8.912,0.816 -17.745,0.65 -26.5,-0.5 -0.5,-32.665 -0.667,-65.332 -0.5,-98 z"
       id="path37" />
  </g>
  <g
     id="g38"
     transform="translate(-104.64255,-311)">
    <path
       style="opacity:1"
       fill="#ee510f"
       d="m 708.5,689.5 c -0.111,0.617 -0.444,1.117 -1,1.5 -9.333,0.667 -18.667,0.667 -28,0 -0.556,-0.383 -0.889,-0.883 -1,-1.5 0.333,0 0.667,0 1,0 9.333,0 18.667,0 28,0 0.333,-160 0.667,-160 1,0 z"
       id="path38" />
  </g>
  <g
     id="g39"
     transform="translate(-104.64255,-311)">
    <path
       style="opacity:1"
       fill="#ef5314"
       d="m 612.5,667.5 c -0.538,-1.617 -0.871,-3.284 -1,-5 -16.014,-0.333 -32.014,10e-4 -48,1 -1.745,4.9 -3.078,9.9 -4,15 -0.307,-5.98 1.026,-11.813 4,-17.5 16,-0.667 32,-0.667 48,0 1.597,2.188 1.931,4.354 1,6.5 z"
       id="path39" />
  </g>
  <g
     id="g40"
     transform="translate(-104.64255,-311)">
    <path
       style="opacity:1"
       fill="#f7b69c"
       d="m 792.5,630.5 c 0.333,0 0.667,0 1,0 0,11 0,22 0,33 16.842,-0.33 33.508,0.003 50,1 -17,0 -34,0 -51,0 0,-11.333 0,-22.667 0,-34 z"
       id="path40" />
  </g>
  <g
     id="g41"
     transform="translate(-104.64255,-311)">
    <path
       style="opacity:1"
       fill="#0b0c0d"
       d="m 216.5,655.5 c -1.123,11.287 -1.29,22.621 -0.5,34 0.374,0.916 0.874,1.75 1.5,2.5 6.227,3.274 12.227,6.774 18,10.5 -7.336,-2.751 -14.17,-6.418 -20.5,-11 -0.667,-11.667 -0.667,-23.333 0,-35 0.383,-0.556 0.883,-0.889 1.5,-1 z"
       id="path41" />
  </g>
  <g
     id="g42"
     transform="translate(-104.64255,-311)">
    <path
       style="opacity:1"
       fill="#ee5010"
       d="m 792.5,664.5 c 17,0 34,0 51,0 1.325,3.945 1.992,8.278 2,13 -0.034,4.754 -0.701,9.254 -2,13.5 -26.836,0.83 -53.503,0.664 -80,-0.5 0.667,0 1,-0.333 1,-1 26.667,0 53.333,0 80,0 0,-8 0,-16 0,-24 -17.508,0.33 -34.841,-0.003 -52,-1 z"
       id="path42" />
  </g>
</svg>
